<?xml version="1.0" encoding="utf-8"?>
<!-- Generator: Adobe Illustrator 23.0.0, SVG Export Plug-In . SVG Version: 6.00 Build 0)  -->
<svg version="1.1" id="e4efdc2f-150c-4196-a68d-a8467dcc9971"
	 xmlns="http://www.w3.org/2000/svg" xmlns:xlink="http://www.w3.org/1999/xlink" x="0px" y="0px" viewBox="0 0 1012.3 636.6"
	 style="enable-background:new 0 0 1012.3 636.6;" xml:space="preserve">
<style type="text/css">
	.st0{fill:#A0616A;}
	.st1{fill:#265D84;}
	.st2{opacity:0.1;enable-background:new    ;}
	.st3{fill:#745984;}
	.st4{fill:#E6A89B;}
	.st5{fill:#2F2E41;}
	.st6{fill:#D0CDE1;}
	.st7{fill:#FF687D;}
</style>
<path class="st0" d="M378.8,266.4c0,0,83,4,88,33s-97,3-97,3L378.8,266.4z"/>
<path class="st1" d="M247.8,174.4c0,0,14,4,25,28s33,46,33,46l89,17l-15,45l-85-11l-53-30L247.8,174.4z"/>
<path class="st2" d="M247.8,174.4c0,0,14,4,25,28s33,46,33,46l89,17l-15,45l-85-11l-53-30L247.8,174.4z"/>
<rect x="824.3" y="92.9" class="st3" width="105" height="2"/>
<rect x="409.3" y="92.9" class="st3" width="333" height="2"/>
<rect x="30.3" y="333.9" class="st3" width="789" height="301"/>
<polygon class="st4" points="115.8,128.4 124.8,185.4 186.8,188.4 179.8,104.4 "/>
<path class="st5" d="M50.3,508.9l-3,126h94l14-50l11,50h98c0,0,2-144-9-145C244.3,488.9,50.3,508.9,50.3,508.9z"/>
<circle class="st4" cx="135.8" cy="89.4" r="54"/>
<path class="st1" d="M44.8,514.4l28-138l-37-183l85.2-32l41.8-5l21-3.9l15,3.9c0,0,60,15,63,26s-12,101-12,101l-14,74l31,133
	c0,0-129,44-220,24H44.8z"/>
<polygon class="st2" points="82.3,243.9 82.3,280.9 200.3,281.1 88.3,268.9 "/>
<polygon class="st2" points="72.2,346.1 220.3,324.9 72.2,366.9 "/>
<polygon class="st2" points="307.3,248.9 291.4,306.2 318.3,250.8 "/>
<path class="st5" d="M180.2,35.3l9.9-4c0,0-20.8-22.9-49.7-20.9l8.1-8.9c0,0-19.9-8-37.9,12.9c-9.5,11-20.5,23.9-27.3,38.4H72.8
	l4.4,9.8l-15.5,9.8l15.9-1.8c-1,5.4-1.1,10.8-0.4,16.2c0.7,5.4,3.4,10.3,7.7,13.7l0,0c0,0,12.3-25.5,12.3-29.5V81
	c0,0,9.9-8.9,9.9-14.9l5.4,7l2.7-10.9L148.6,73l-5.4-8.9l20.8,3l-8.1-10.9c0,0,23.5,12.9,24.4,23.9c0.9,10.9,7.8,21.3,7.8,21.3
	S206.4,50.2,180.2,35.3z"/>
<rect x="233.3" y="234.9" class="st6" width="384" height="401"/>
<rect x="273.3" y="322.9" class="st7" width="284" height="40"/>
<rect x="322.1" y="428.9" class="st7" width="186" height="20"/>
<rect x="322.5" y="463.9" class="st7" width="186" height="20"/>
<rect x="322.8" y="498.9" class="st7" width="93" height="20"/>
<rect x="519.3" y="599.9" class="st7" width="43" height="20"/>
<path class="st4" d="M205.8,285.4c0,0,87-13,100,6s-92,29-92,29L205.8,285.4z"/>
<path class="st1" d="M45.8,192.4h-6.3c-2.6,0-5.1,1-7,2.7c-5.9,5.5-18.5,19.8-23.8,45.3c-7,34-19,100,8,105s204-19,204-19l-13-46
	l-128,1c0,0,2-22-2-36S45.8,192.4,45.8,192.4z"/>
<circle class="st6" cx="409.3" cy="93.9" r="41"/>
<circle class="st3" cx="596.3" cy="93.9" r="41"/>
<path class="st3" d="M783.3,135.9c-23.2,0-42-18.8-42-42s18.8-42,42-42s42,18.8,42,42C825.3,117.1,806.5,135.9,783.3,135.9z
	 M783.3,53.9c-22.1,0-40,17.9-40,40s17.9,40,40,40s40-17.9,40-40C823.3,71.9,805.4,54,783.3,53.9L783.3,53.9z"/>
<path class="st3" d="M970.3,135.9c-23.2,0-42-18.8-42-42s18.8-42,42-42s42,18.8,42,42C1012.3,117.1,993.5,135.9,970.3,135.9z
	 M970.3,53.9c-22.1,0-40,17.9-40,40s17.9,40,40,40s40-17.9,40-40C1010.3,71.9,992.4,54,970.3,53.9L970.3,53.9z"/>
<polygon class="st3" points="403.6,111.4 385.9,87.7 392.3,82.9 404.5,99.2 460.7,43 466.4,48.6 "/>
<rect x="16.5" y="633.8" class="st3" width="816.6" height="2.8"/>
</svg>
