<?xml version="1.0" encoding="utf-8"?>
<!-- Generator: Adobe Illustrator 24.0.1, SVG Export Plug-In . SVG Version: 6.00 Build 0)  -->
<svg version="1.1" id="Layer_1" xmlns="http://www.w3.org/2000/svg" xmlns:xlink="http://www.w3.org/1999/xlink" x="0px" y="0px"
	 viewBox="0 0 273.48 273.48" style="enable-background:new 0 0 273.48 273.48;" xml:space="preserve">
<style type="text/css">
	.st0{fill:#C3673F;stroke:#160139;stroke-width:5;stroke-miterlimit:10;}
	.st1{fill:#D3D3D3;}
	.st2{fill:#160139;}
</style>
<path class="st0" d="M205.74,175.59c0,18.2,7,34.7,18.3,47.1c-20.4,19.8-48.1,32-78.8,32c-0.2,0-0.4,0-0.6,0v-226h0.6
	c51.2,0,94.5,34.1,108.3,80.7C225.84,118.49,205.74,144.69,205.74,175.59z"/>
<path class="st1" d="M155.44,39.89c37.6,3.8,70.6,28.5,84.8,63.5c-27.4,13.3-45.2,41.1-45.2,72.3c0,16.5,5,32.5,14.4,45.9
	c-15.5,12.5-34.2,20.1-54,22V39.89L155.44,39.89z"/>
<path class="st0" d="M173.44,175.59c0,18.2,3.6,34.7,9.6,47.1c-10.6,19.8-25.2,32-41.2,32c-0.1,0-0.2,0-0.3,0v-226h0.3
	c26.7,0,49.4,34.1,56.6,80.7C183.94,118.49,173.44,144.69,173.44,175.59z"/>
<path class="st1" d="M145.94,39.69c14.6,6.8,27.5,32.2,33,65.8c-13,13.1-21.2,39.7-21.2,70.1c0,16.9,2.6,33.3,7.4,46.6
	c-5.7,11-12.4,18.4-19.3,21.5L145.94,39.69L145.94,39.69z"/>
<path class="st0" d="M71.44,175.59c0,18.2-7.5,34.7-19.8,47.1c22,19.8,52.1,32,85.2,32c0.2,0,0.4,0,0.6,0v-226h-0.6
	c-55.4,0-102.2,34-117.2,80.7C49.74,118.49,71.44,144.69,71.44,175.59z"/>
<path class="st1" d="M125.84,39.89c-40.7,3.8-76.3,28.5-91.7,63.5c29.6,13.3,48.8,41.1,48.8,72.3c0,16.5-5.4,32.5-15.5,45.9
	c16.8,12.5,36.9,20.1,58.4,22V39.89z"/>
<path class="st0" d="M101.84,175.59c0,18.2-3.9,34.7-10.4,47.1c11.5,19.8,27.2,32,44.5,32c0.1,0,0.2,0,0.3,0v-226h-0.3
	c-28.9,0-53.4,34.1-61.2,80.7C90.44,118.49,101.84,144.69,101.84,175.59z"/>
<path class="st1" d="M132.34,244.09c-8.2-3-16-10.5-22.7-21.9c5.3-13.4,8.2-29.7,8.2-46.6c0-30.5-9.1-57.2-23.5-70.3
	c6.3-34.7,21.1-59.9,38-66C132.34,39.29,132.34,244.09,132.34,244.09z"/>
<path class="st2" d="M152.34,264.39h-27.7c-2.1,0-3.8-1.7-3.8-3.8v-1.9c0-2.1,1.7-3.8,3.8-3.8h27.7c2.1,0,3.8,1.7,3.8,3.8v1.9
	C156.04,262.69,154.34,264.39,152.34,264.39z"/>
<path class="st2" d="M154.74,28.49h-30.5c-1.3,0-2.4-1.1-2.4-2.4l0,0c0-1.3,1.1-2.4,2.4-2.4h30.5c1.3,0,2.4,1.1,2.4,2.4l0,0
	C157.14,27.49,156.04,28.49,154.74,28.49z"/>
<polygon class="st2" points="139.44,8.39 124.84,24.89 154.14,24.89 "/>
</svg>
