<?xml version="1.0" encoding="utf-8"?>
<!-- Generator: Adobe Illustrator 23.0.0, SVG Export Plug-In . SVG Version: 6.00 Build 0)  -->
<svg version="1.1" xmlns="http://www.w3.org/2000/svg" xmlns:xlink="http://www.w3.org/1999/xlink" x="0px" y="0px"
	 viewBox="0 0 1112 264" style="enable-background:new 0 0 1112 264;" xml:space="preserve">
<style type="text/css">
	.st0{display:none;}
	.st1{display:inline;}
	.st2{fill:#FF687D;}
	.st3{fill:#C3673F;stroke:#160139;stroke-width:5;stroke-miterlimit:10;}
	.st4{fill:#D3D3D3;}
	.st5{fill:#160139;}
	.st6{fill:#20123A;}
</style>
<g id="Layer_1" class="st0">
	<g class="st1">
		<rect class="st2" width="800" height="264"/>
	</g>
</g>
<g id="Layer_2">
	<g>
		<path class="st3" d="M192.5,170.2c0,18.2,7,34.7,18.3,47.1c-20.4,19.8-48.1,32-78.8,32c-0.2,0-0.4,0-0.6,0v-226h0.6
			c51.2,0,94.5,34.1,108.3,80.7C212.6,113.1,192.5,139.3,192.5,170.2z"/>
		<path class="st4" d="M142.2,34.5c37.6,3.8,70.6,28.5,84.8,63.5c-27.4,13.3-45.2,41.1-45.2,72.3c0,16.5,5,32.5,14.4,45.9
			c-15.5,12.5-34.2,20.1-54,22L142.2,34.5L142.2,34.5z"/>
	</g>
	<g>
		<path class="st3" d="M160.2,170.2c0,18.2,3.6,34.7,9.6,47.1c-10.6,19.8-25.2,32-41.2,32c-0.1,0-0.2,0-0.3,0v-226h0.3
			c26.7,0,49.4,34.1,56.6,80.7C170.7,113.1,160.2,139.3,160.2,170.2z"/>
		<path class="st4" d="M132.7,34.3c14.6,6.8,27.5,32.2,33,65.8c-13,13.1-21.2,39.7-21.2,70.1c0,16.9,2.6,33.3,7.4,46.6
			c-5.7,11-12.4,18.4-19.3,21.5L132.7,34.3L132.7,34.3z"/>
	</g>
	<g>
		<path class="st3" d="M58.2,170.2c0,18.2-7.5,34.7-19.8,47.1c22,19.8,52.1,32,85.2,32c0.2,0,0.4,0,0.6,0v-226h-0.6
			C68.2,23.3,21.4,57.3,6.4,104C36.5,113.1,58.2,139.3,58.2,170.2z"/>
		<path class="st4" d="M112.6,34.5c-40.7,3.8-76.3,28.5-91.7,63.5c29.6,13.3,48.8,41.1,48.8,72.3c0,16.5-5.4,32.5-15.5,45.9
			c16.8,12.5,36.9,20.1,58.4,22V34.5z"/>
	</g>
	<g>
		<path class="st3" d="M88.6,170.2c0,18.2-3.9,34.7-10.4,47.1c11.5,19.8,27.2,32,44.5,32c0.1,0,0.2,0,0.3,0v-226h-0.3
			c-28.9,0-53.4,34.1-61.2,80.7C77.2,113.1,88.6,139.3,88.6,170.2z"/>
		<path class="st4" d="M119.1,238.7c-8.2-3-16-10.5-22.7-21.9c5.3-13.4,8.2-29.7,8.2-46.6c0-30.5-9.1-57.2-23.5-70.3
			c6.3-34.7,21.1-59.9,38-66V238.7z"/>
	</g>
	<path class="st5" d="M139.1,259h-27.7c-2.1,0-3.8-1.7-3.8-3.8v-1.9c0-2.1,1.7-3.8,3.8-3.8h27.7c2.1,0,3.8,1.7,3.8,3.8v1.9
		C142.8,257.3,141.1,259,139.1,259z"/>
	<path class="st5" d="M141.5,23.1H111c-1.3,0-2.4-1.1-2.4-2.4l0,0c0-1.3,1.1-2.4,2.4-2.4h30.5c1.3,0,2.4,1.1,2.4,2.4l0,0
		C143.9,22.1,142.8,23.1,141.5,23.1z"/>
	<polygon class="st5" points="126.2,3 111.6,19.5 140.9,19.5 	"/>
</g>
<g id="Layer_4">
	<g>
		<path class="st6" d="M395.3,184.6l-23.4-33.2h-16.2v33.2h-21.9V82.3h46c22.2,0,38.6,14.3,38.6,34.6c0,15.2-9.2,27.1-23.2,32
			l25.2,35.8H395.3z M355.6,131.3h21.8c10.9,0,18.3-5.7,18.3-14.5s-7.5-14.5-18.3-14.5h-21.8V131.3z"/>
		<path class="st6" d="M507,107.6v77h-21.8v-9.7c-4.6,7-13.3,11.5-23.2,11.5c-16.7,0-28.6-12.4-28.6-29.8v-49h21V152
			c0,9.5,6,16.1,14.6,16.1c9.1,0,16.1-6.6,16.1-14.9l0.1,0.4v-46H507z"/>
		<path class="st6" d="M519.8,174.8l9.4-15c6.9,4.9,15.5,8.6,25.8,8.6c5.8,0,10-2.4,10-5.8c0-4.8-5.7-6.3-13.6-8.3
			c-15.8-3.9-28-8.2-28.2-23.4c-0.1-14.6,11.9-25,30.1-25c11,0,21.9,3.9,30.4,9.5l-8.8,15.5c-7-4.3-15-6.9-21.6-6.9
			c-5.4,0-9.1,1.9-9.1,4.6c0,4.2,3.1,5.4,13.6,8.2c13.3,3.4,28,7.9,28,24.7c0,15.2-12.4,24.9-31.3,24.9
			C542.2,186.4,529.1,182.2,519.8,174.8z"/>
		<path class="st6" d="M646.2,179.7c-4.5,4-11.5,6.7-17.7,6.7c-13.6,0-23.1-9.7-23.1-23.5v-37.7h-10.6v-17.6h10.6V86.4h20.9v21.2
			h16.7v17.6h-16.7v34.3c0,5.1,3.3,8.6,7.3,8.6c3,0,6-1,7.5-2.5L646.2,179.7z"/>
		<path class="st6" d="M657.9,206.7l4.6-14.9c3.7,2.1,7.6,3.4,10.1,3.4c4.2,0,7.5-1.3,9.1-4.2l2.7-5.7l-32-77.8h22.5l20.3,54.1
			l19.2-54.1h22.2L705,188.5c-5.8,15-15.6,22.9-27.7,22.9C670.9,211.4,663.2,209.5,657.9,206.7z"/>
		<path class="st6" d="M753.8,82.3h7.5l40.1,75.4l40.1-75.4h7.5v102.4h-7.5V97.7l-40.1,75.4l-40.1-75.4v86.9h-7.5V82.3z"/>
		<path class="st6" d="M934.8,137.7v46.9h-7.3v-12.4c-5.8,9.2-18.5,14.2-29.4,14.2c-16.1,0-27.9-9.8-27.9-24.7
			c0-15,12.8-25.5,30.7-25.5c8.5,0,18,2.1,26.5,5.1v-3.6c0-12.1-5.8-25.2-23.5-25.2c-7.7,0-16.1,2.8-23.2,6.9l-3-6.1
			c9.4-5.1,19.1-7.5,27-7.5C923.9,105.8,934.8,119.1,934.8,137.7z M927.5,160.5v-13c-7.6-2.5-16.7-4.6-25.5-4.6
			c-14.3,0-24.6,7.7-24.6,18.6c0,10.7,9.5,18,21.8,18C910.4,179.6,924.5,173.3,927.5,160.5z"/>
		<path class="st6" d="M953.4,146c0-22.9,16.7-40.2,38.9-40.2c10.3,0,19.8,4.3,26.8,11.3l-5.2,5.1c-5.5-5.8-13.3-9.5-21.6-9.5
			c-18,0-31.4,14.3-31.4,33.4c0,19.2,13.4,33.5,31.4,33.5c8.3,0,16.1-3.7,21.9-9.7l5.1,5.1c-7,7.2-16.5,11.5-27,11.5
			C970.1,186.4,953.4,169.1,953.4,146z"/>
		<path class="st6" d="M1097.5,169.4l4.8,5.1c-6.6,7.2-20,11.9-31.7,11.9c-20.6,0-38.3-17.9-38.3-40.5s16.8-40.1,37.8-40.1
			c22.5,0,36.7,17.3,36.7,43.4h-67.1c1.5,17,14.5,30.4,30.7,30.4C1080.8,179.6,1091.7,175.8,1097.5,169.4z M1039.7,142.3h59.7
			c-1-17.4-11.9-29.7-29.2-29.7C1054.1,112.6,1041.3,125.2,1039.7,142.3z"/>
	</g>
</g>
<g id="Layer_3" class="st0">
	
		<image style="display:inline;overflow:visible;" width="194" height="64" xlink:href="../logo-word-hor-sm.5875d8d1b185.png"  transform="matrix(4.1237 0 0 4.1237 0 0)">
	</image>
</g>
</svg>
