<?xml version="1.0" encoding="utf-8"?>
<!-- Generator: Adobe Illustrator 23.0.0, SVG Export Plug-In . SVG Version: 6.00 Build 0)  -->
<svg version="1.1" id="Layer_1" xmlns="http://www.w3.org/2000/svg" xmlns:xlink="http://www.w3.org/1999/xlink" x="0px" y="0px"
	 viewBox="0 0 512 512" style="enable-background:new 0 0 512 512;" xml:space="preserve">
<style type="text/css">
	.st0{fill:#FEAF88;}
	.st1{fill:#544260;}
	.st2{fill:#FFFFFF;}
	.st3{fill:#DCE3DB;}
	.st4{fill:#755A84;}
	.st5{fill:#B3B3B3;}
	.st6{fill:#F7FAFA;}
	.st7{fill:#265D84;}
	.st8{fill:#CB6686;}
</style>
<path class="st0" d="M256,0c141.4,0,256,114.6,256,256c0,141.4-114.6,256-256,256S0,397.4,0,256C0,114.6,114.6,0,256,0z"/>
<g>
	<path class="st1" d="M447,231.7H57.6l194.7-114.9L447,231.7z"/>
	<path class="st1" d="M57.6,231.7H447v229.8H57.6V231.7z"/>
</g>
<path class="st2" d="M97.6,64.5h244.8L407,129v332.5H97.6V64.5L97.6,64.5z"/>
<path class="st3" d="M144.3,150.3h216.1v4.9H144.3V150.3z M144.3,202.8L144.3,202.8h216.1v4.9H144.3V202.8z M144.3,211.8
	L144.3,211.8h216.1v4.9H144.3V211.8z M144.3,220.8L144.3,220.8h216.1v4.9H144.3V220.8z M144.3,229.9L144.3,229.9h216.1v4.9H144.3
	V229.9z M144.3,159.3L144.3,159.3h216.1v4.9H144.3V159.3z M144.3,168.4L144.3,168.4h216.1v4.9H144.3V168.4z M144.3,177.4
	L144.3,177.4h216.1v4.9H144.3V177.4z M144.3,186.4L144.3,186.4h165.5v4.9H144.3V186.4z M144.3,238.9L144.3,238.9h165.5v4.9H144.3
	V238.9z"/>
<path class="st4" d="M342.4,64.5V129H407L342.4,64.5z"/>
<path class="st5" d="M214.4,413.6h73.3v7.2h-73.3V413.6z"/>
<g>
	<path class="st4" d="M57.6,231.7l194.7,114.9L57.6,461.5V231.7L57.6,231.7z"/>
	<path class="st4" d="M447,231.7L252.3,346.6L447,461.5L447,231.7L447,231.7z"/>
</g>
<path class="st1" d="M252.3,346.6L57.6,461.5H447L252.3,346.6z"/>
<path class="st6" d="M407,193.5V129h-64.5L407,193.5z"/>
<path class="st7" d="M97.6,83.4c22,0,39.8,17.8,39.8,39.8c0,22-17.8,39.8-39.8,39.8c-22,0-39.8-17.8-39.8-39.8S75.6,83.4,97.6,83.4z
	"/>
<path class="st2" d="M100.6,133.7c-1.2,1.4-2.6,2.6-4.2,3.5c-1.5,0.9-3.1,1.3-4.6,1.3c-1.7,0-3.4-0.5-5-1.5c-1.6-1-2.9-2.5-3.9-4.6
	c-1-2.1-1.5-4.3-1.5-6.8c0-3,0.8-6.1,2.3-9.1c1.6-3,3.5-5.3,5.8-6.9c2.3-1.5,4.6-2.3,6.7-2.3c1.7,0,3.2,0.4,4.8,1.3
	c1.5,0.9,2.8,2.2,3.9,4l1-4.5h5.1l-4.1,19.3c-0.6,2.7-0.9,4.2-0.9,4.4c0,0.5,0.2,1,0.6,1.3c0.4,0.4,0.9,0.6,1.4,0.6
	c1,0,2.3-0.6,4-1.7c2.2-1.5,3.9-3.6,5.2-6.1c1.3-2.6,1.9-5.2,1.9-7.9c0-3.2-0.8-6.2-2.5-8.9c-1.6-2.8-4.1-5-7.3-6.6
	c-3.2-1.7-6.8-2.5-10.8-2.5c-4.5,0-8.6,1-12.3,3.1c-3.7,2.1-6.6,5.1-8.6,9c-2,3.9-3.1,8.1-3.1,12.6c0,4.7,1,8.7,3.1,12.1
	c2,3.4,5,5.9,8.8,7.5c3.9,1.6,8.1,2.4,12.8,2.4c5,0,9.2-0.8,12.6-2.5c3.4-1.7,5.9-3.7,7.6-6.2h5.2c-1,2-2.7,4.1-5,6.1
	c-2.4,2.1-5.2,3.7-8.5,5c-3.3,1.2-7.2,1.8-11.8,1.8c-4.2,0-8.2-0.5-11.7-1.6c-3.6-1.1-6.6-2.7-9.2-4.9c-2.5-2.2-4.4-4.7-5.7-7.5
	c-1.6-3.6-2.4-7.5-2.4-11.7c0-4.6,1-9.1,2.9-13.3c2.3-5.2,5.7-9.1,9.9-11.9c4.3-2.7,9.5-4.1,15.6-4.1c4.7,0,9,1,12.8,2.9
	c3.8,1.9,6.8,4.8,8.9,8.7c1.9,3.3,2.8,6.9,2.8,10.8c0,5.5-1.9,10.4-5.8,14.7c-3.5,3.9-7.3,5.8-11.4,5.8c-1.3,0-2.4-0.2-3.2-0.6
	c-0.8-0.4-1.4-1-1.8-1.7C100.9,135.7,100.8,134.9,100.6,133.7L100.6,133.7z M86.7,126L86.7,126c0,2.6,0.6,4.7,1.9,6.1
	c1.2,1.5,2.7,2.2,4.3,2.2c1.1,0,2.2-0.3,3.4-1c1.2-0.6,2.3-1.6,3.4-2.9c1.1-1.3,2-2.9,2.7-4.8c0.7-1.9,1-3.9,1-5.8
	c0-2.6-0.6-4.6-1.9-6c-1.3-1.4-2.9-2.2-4.7-2.2c-1.2,0-2.4,0.3-3.5,0.9c-1.1,0.6-2.1,1.6-3.1,3c-1,1.4-1.8,3-2.4,5
	C87,122.5,86.7,124.3,86.7,126z"/>
<circle class="st7" cx="413" cy="401.4" r="99"/>
<path class="st2" d="M413,313c48.9,0,88.5,39.6,88.5,88.5c0,48.9-39.6,88.5-88.5,88.5c-48.9,0-88.5-39.6-88.5-88.5
	C324.5,352.6,364.1,313,413,313z"/>
<path class="st4" d="M391.2,377.1c-3,0-5.4-2.4-5.4-5.4c0-3,2.4-5.4,5.4-5.4H457l-13.2-15.5c-1.9-2.3-1.7-5.7,0.6-7.6
	c2.3-1.9,5.7-1.7,7.6,0.6l20.6,24.1c1,1,1.6,2.3,1.6,3.8c0,1.5-0.6,2.8-1.6,3.8L452,399.6c-1.9,2.3-5.3,2.5-7.6,0.6
	c-2.3-1.9-2.5-5.3-0.6-7.6l13.2-15.5L391.2,377.1L391.2,377.1z"/>
<path class="st8" d="M434.8,425.8c3,0,5.4,2.4,5.4,5.4s-2.4,5.4-5.4,5.4h-65.9l13.2,15.5c1.9,2.3,1.7,5.7-0.6,7.6
	c-2.3,1.9-5.7,1.7-7.6-0.6L353.4,435c-1-1-1.6-2.3-1.6-3.8c0-1.5,0.6-2.8,1.6-3.8l20.6-24.1c1.9-2.3,5.3-2.5,7.6-0.6
	c2.3,1.9,2.5,5.3,0.6,7.6l-13.2,15.5L434.8,425.8L434.8,425.8L434.8,425.8z"/>
</svg>
