<?xml version="1.0" encoding="utf-8"?>
<!-- Generator: Adobe Illustrator 23.0.0, SVG Export Plug-In . SVG Version: 6.00 Build 0)  -->
<svg version="1.1" xmlns="http://www.w3.org/2000/svg" xmlns:xlink="http://www.w3.org/1999/xlink" x="0px" y="0px"
	 viewBox="0 0 512 512" style="enable-background:new 0 0 512 512;" xml:space="preserve">
<style type="text/css">
	.st0{fill:#ECF0F1;}
	.st1{fill:#FEAF88;}
	.st2{display:none;fill:#D89577;}
	.st3{display:none;fill:#666666;}
	.st4{display:none;fill:#FF687D;}
	.st5{display:none;}
	.st6{display:inline;fill:#FFFFFF;}
	.st7{display:none;fill:#828282;}
	.st8{display:none;fill:#FFFFFF;}
	.st9{display:none;fill:#21D0C3;}
	.st10{display:none;fill:#FAD24D;}
	.st11{display:none;fill:#FF5B62;}
	.st12{display:none;fill:#265D84;}
	.st13{display:none;fill:#B6B6B8;}
	.st14{display:none;fill:#C2C2C4;}
	.st15{display:none;fill:#B0B0B0;}
	.st16{display:none;fill:#ECF0F1;}
	.st17{display:inline;}
	.st18{fill:#CB6686;}
	.st19{fill:#2F2E41;}
	.st20{fill:#A0616A;}
	.st21{opacity:0.1;enable-background:new    ;}
	.st22{fill:#D0CDE1;}
	.st23{fill:#575A89;}
	.st24{fill:#3F3D56;}
</style>
<g id="Layer_1">
	<circle class="st0" cx="256" cy="256" r="256"/>
	<circle class="st1" cx="256" cy="256" r="256"/>
	<ellipse class="st2" cx="256" cy="421.6" rx="182.3" ry="14.4"/>
	<path class="st3" d="M66,67.2h380c12.5,0,22.7,10.2,22.7,22.7V324H43.3V89.9C43.3,77.4,53.5,67.2,66,67.2L66,67.2L66,67.2z"/>
	<path class="st4" d="M58.7,308.6h394.6V89.9c0-4-3.3-7.3-7.3-7.3H66c-4,0-7.3,3.3-7.3,7.3L58.7,308.6L58.7,308.6z"/>
	<g class="st5">
		<path class="st6" d="M468.7,324v24.8c0,12.5-11.3,22.7-25,22.7H68.3c-13.8,0-25-10.2-25-22.7V324H468.7z"/>
		<path class="st6" d="M141.2,115.5h229.5h34.2c4.1,0,7.5,3.4,7.5,7.5v44.8v140.8H99.5V167.9v-44.8c0-4.1,3.4-7.5,7.5-7.5
			L141.2,115.5L141.2,115.5z"/>
	</g>
	<path class="st7" d="M107.1,115.5h297.9c4.1,0,7.5,3.4,7.5,7.5v15.1H99.5v-15.1C99.5,118.9,102.9,115.5,107.1,115.5z"/>
	<path class="st8" d="M226.4,123.3H390c1.1,0,2,0.9,2,2v3.8c0,1.1-0.9,2-2,2H226.4c-1.1,0-2-0.9-2-2v-3.8
		C224.4,124.2,225.3,123.3,226.4,123.3z"/>
	<path class="st9" d="M117.3,122c2.4,0,4.3,1.9,4.3,4.3c0,2.4-1.9,4.3-4.3,4.3c-2.4,0-4.3-1.9-4.3-4.3
		C113,123.9,114.9,122,117.3,122z"/>
	<path class="st10" d="M134.4,122c2.4,0,4.3,1.9,4.3,4.3c0,2.4-1.9,4.3-4.3,4.3s-4.3-1.9-4.3-4.3C130.1,123.9,132,122,134.4,122z"/>
	<path class="st11" d="M151.6,122c2.4,0,4.3,1.9,4.3,4.3c0,2.4-1.9,4.3-4.3,4.3c-2.4,0-4.3-1.9-4.3-4.3
		C147.2,123.9,149.2,122,151.6,122z"/>
	<path class="st12" d="M258.7,200.3c11.1,1.9,16.1,12.4,15.9,22.5l107.3-0.9c2.9,0,5.4,1.5,5.4,3.3l0,0c0,1.8-2.4,3-5.4,3.3
		l-111.2,10.4c-3.6,5.1-8.9,8.3-14.8,8.3c-5.9,0-11.2-3.2-14.8-8.3L130,228.3c-2.9-0.3-5.4-1.5-5.4-3.3l0,0c0-1.8,2.4-3.3,5.4-3.3
		l107.3,0.9c-0.4-9.9,4.9-20.6,15.9-22.5l0.1-4.1h-32.8c-1.2,0-2.1-1-2.1-2.3l0,0c0-1.3,0.9-2.3,2.1-2.3h32.9l0.5-19
		c0.1-1.8,0.5-3.3,2-3.3l0,0c1.5,0,1.9,1.5,2,3.3l0.5,19h32.9c1.2,0,2.1,1,2.1,2.3l0,0c0,1.3-0.9,2.3-2.1,2.3h-32.8L258.7,200.3
		L258.7,200.3z M199.6,237c4.5,0,8.2,4,8.2,8.9c0,4.9-3.7,8.9-8.2,8.9s-8.2-4-8.2-8.9C191.5,241,195.1,237,199.6,237z M312.4,237
		c4.5,0,8.2,4,8.2,8.9c0,4.9-3.7,8.9-8.2,8.9c-4.5,0-8.2-4-8.2-8.9C304.2,241,307.9,237,312.4,237z M312.4,242c2,0,3.6,1.8,3.6,3.9
		c0,2.2-1.6,3.9-3.6,3.9c-2,0-3.6-1.8-3.6-3.9C308.8,243.7,310.4,242,312.4,242z M199.6,242c2,0,3.6,1.8,3.6,3.9
		c0,2.2-1.6,3.9-3.6,3.9c-2,0-3.6-1.8-3.6-3.9C196,243.7,197.6,242,199.6,242z"/>
	<circle class="st13" cx="256" cy="346.8" r="7.8"/>
	<path class="st14" d="M305.1,407.3l36.1,11.6H170.8l29.1-11.6v-35.7h105.1V407.3z"/>
	<path class="st15" d="M305.1,407.3L200,371.6h105.1V407.3z"/>
	<path class="st16" d="M200,407.3h105.1l36.1,11.6v5H256h-85.2v-5L200,407.3L200,407.3z"/>
	<g class="st5">
		<path class="st17" d="M284.2,378.3h-10.9V325c0-3-2.4-5.4-5.4-5.4s-5.4,2.4-5.4,5.4v53.2H121.2V269.6h45.2c3,0,5.4-2.4,5.4-5.4
			c0-3-2.4-5.4-5.4-5.4h-50.6c-3,0-5.4,2.4-5.4,5.4v114.1H99.4c-3,0-5.4,2.4-5.4,5.4v10.9c0,15,12.2,27.2,27.2,27.2h141.3
			c15,0,27.2-12.2,27.2-27.2v-10.9C289.6,380.7,287.2,378.3,284.2,378.3z M278.7,394.5c0,9-7.3,16.3-16.3,16.3h-10.9v-5.4
			c0-3-2.4-5.4-5.4-5.4s-5.4,2.4-5.4,5.4v5.4h-97.8v-5.4c0-3-2.4-5.4-5.4-5.4c-3,0-5.4,2.4-5.4,5.4v5.4h-10.9
			c-9,0-16.3-7.3-16.3-16.3v-5.4h173.9V394.5z"/>
		<path class="st17" d="M376.5,128.3h10.9c3,0,5.4-2.4,5.4-5.4s-2.4-5.4-5.4-5.4h-10.9c-9,0-16.3,7.3-16.3,16.3v5.4h-5.4
			c-3,0-5.4,2.4-5.4,5.4s2.4,5.4,5.4,5.4h5.4v16.3c0,3,2.4,5.4,5.4,5.4c3,0,5.4-2.4,5.4-5.4v-16.3h5.4c3,0,5.4-2.4,5.4-5.4
			s-2.4-5.4-5.4-5.4h-5.4v-5.4C371.1,130.7,373.5,128.3,376.5,128.3z"/>
		<path class="st17" d="M403.7,95.7h-65.2c-9,0-16.3,7.3-16.3,16.3v10.9c0,3,2.4,5.4,5.4,5.4s5.4-2.4,5.4-5.4V112
			c0-3,2.4-5.4,5.4-5.4h65.2c3,0,5.4,2.4,5.4,5.4v65.2c0,3-2.4,5.4-5.4,5.4h-65.2c-3,0-5.4-2.4-5.4-5.4v-32.6c0-3-2.4-5.4-5.4-5.4
			s-5.4,2.4-5.4,5.4v32.6c0,9,7.3,16.3,16.3,16.3h65.2c9,0,16.3-7.3,16.3-16.3V112C420,103,412.7,95.7,403.7,95.7z"/>
		<path class="st17" d="M349.4,313c0,12,9.7,21.7,21.7,21.7s21.7-9.7,21.7-21.7c0-12-9.7-21.7-21.7-21.7S349.4,301,349.4,313z
			 M382,313c0,6-4.9,10.9-10.9,10.9s-10.9-4.9-10.9-10.9c0-6,4.9-10.9,10.9-10.9S382,307,382,313z"/>
		<path class="st17" d="M403.7,264.1h-65.2c-9,0-16.3,7.3-16.3,16.3v65.2c0,9,7.3,16.3,16.3,16.3h65.2c9,0,16.3-7.3,16.3-16.3v-10.9
			c0-3-2.4-5.4-5.4-5.4c-3,0-5.4,2.4-5.4,5.4v10.9c0,3-2.4,5.4-5.4,5.4h-65.2c-3,0-5.4-2.4-5.4-5.4v-65.2c0-3,2.4-5.4,5.4-5.4h65.2
			c3,0,5.4,2.4,5.4,5.4V313c0,3,2.4,5.4,5.4,5.4c3,0,5.4-2.4,5.4-5.4v-32.6C420,271.4,412.7,264.1,403.7,264.1z"/>
		<path class="st17" d="M216.1,160.1c0.9,0.5,1.9,0.8,2.9,0.8c0.9,0,1.7-0.2,2.4-0.6L254,144c2.7-1.4,3.7-4.6,2.4-7.3
			c-0.5-1-1.3-1.8-2.4-2.4L221.4,118c-2.7-1.4-5.9-0.3-7.3,2.4c-0.4,0.8-0.6,1.6-0.6,2.4v32.6C213.5,157.4,214.5,159.1,216.1,160.1z
			 M224.4,131.7l15,7.5l-15,7.5V131.7z"/>
		<path class="st17" d="M229.8,188.1c27,0,48.9-21.9,48.9-48.9s-21.9-48.9-48.9-48.9s-48.9,21.9-48.9,48.9S202.8,188.1,229.8,188.1z
			 M229.8,101.2c21,0,38,17,38,38s-17,38-38,38s-38-17-38-38S208.8,101.2,229.8,101.2z"/>
		<path class="st17" d="M284.2,209.8c1.7,0,3.3-0.8,4.3-2.2l16.3-21.7c1.8-2.4,1.3-5.8-1.1-7.6c-2.4-1.8-5.8-1.3-7.6,1.1l-16.3,21.7
			c-1.8,2.4-1.3,5.8,1.1,7.6C281.8,209.4,283,209.8,284.2,209.8z"/>
		<path class="st17" d="M296.1,229.4c1,1.4,2.6,2.2,4.3,2.2c1.2,0,2.3-0.4,3.3-1.1l21.7-16.3c2.4-1.8,2.9-5.2,1.1-7.6
			c-1.8-2.4-5.2-2.9-7.6-1.1l-21.7,16.3C294.8,223.6,294.3,227,296.1,229.4L296.1,229.4z"/>
		<path class="st17" d="M349.4,241.3c-0.5-3-3.4-4.9-6.3-4.4c-0.1,0-0.1,0-0.2,0l-27.2,5.4c-3,0.3-5.2,3-4.9,6c0.3,3,3,5.2,6,4.9
			h1.1l27.2-5.4c3-0.5,4.9-3.4,4.4-6.3C349.4,241.5,349.4,241.4,349.4,241.3z"/>
		<path class="st17" d="M99.4,242.4h65.2c3,0,5.4-2.4,5.4-5.4v-86.9c0-3-2.4-5.4-5.4-5.4H99.4c-3,0-5.4,2.4-5.4,5.4V237
			C94,240,96.4,242.4,99.4,242.4z M104.9,155.5h54.3v76.1h-54.3V155.5z"/>
		<path class="st17" d="M142.9,166.4H132c-3,0-5.4,2.4-5.4,5.4c0,3,2.4,5.4,5.4,5.4h10.9c3,0,5.4-2.4,5.4-5.4
			C148.3,168.8,145.9,166.4,142.9,166.4z"/>
		<path class="st17" d="M142.9,188.1h-21.7c-3,0-5.4,2.4-5.4,5.4s2.4,5.4,5.4,5.4h21.7c3,0,5.4-2.4,5.4-5.4S145.9,188.1,142.9,188.1
			z"/>
		<path class="st17" d="M142.9,209.8h-21.7c-3,0-5.4,2.4-5.4,5.4s2.4,5.4,5.4,5.4h21.7c3,0,5.4-2.4,5.4-5.4S145.9,209.8,142.9,209.8
			z"/>
		<path class="st17" d="M279.4,240.8c-1.5-2.6-4.8-3.5-7.4-2c-2.6,1.5-3.5,4.8-2,7.4l24,41.5L207,320.3c0,0,0,0-0.4,0h-0.4
			l-14.1,8.1l-9.4,5.4c-2.5,1.4-5.5,1.8-8.3,1.1c-2.8-0.7-5.1-2.6-6.6-5.1l-10.9-18.8c-2.7-5.1-0.9-11.4,4.1-14.3l18.8-10.9
			l13.6,23.5c1,1.7,2.8,2.7,4.7,2.7c3,0,5.4-2.4,5.5-5.4c0-1-0.2-1.9-0.7-2.7l-14-24.2l68.2-56.2l2.2,3.9c1.5,2.6,4.8,3.5,7.4,2
			c2.6-1.5,3.5-4.8,2-7.4l-5.4-9.4c-0.8-1.4-2.2-2.3-3.7-2.6c-1.6-0.3-3.2,0.1-4.5,1.1L179,273.8l-23.1,13.4
			c-8.5,5-12.7,15.1-10,24.6l-5.4,3.1c-7.8,4.5-10.5,14.4-6,22.3c2.2,3.8,5.7,6.5,9.9,7.6c1.4,0.4,2.8,0.5,4.2,0.5
			c2.9,0,5.7-0.8,8.2-2.2l5.4-3.1c2.6,2.7,5.9,4.6,9.5,5.7c1.9,0.5,3.8,0.8,5.7,0.8c3.8,0,7.6-1,10.9-2.9l4.7-2.7l10.9,18.9
			c4.5,7.8,14.4,10.4,22.2,6c7.8-4.5,10.5-14.5,6-22.3c0,0,0,0,0,0l-9.9-17.2l81.5-30.6c1.5-0.6,2.7-1.8,3.2-3.3
			c0.5-1.5,0.4-3.1-0.4-4.5L279.4,240.8z M151,333.6c-1.2,0.7-2.7,0.9-4.1,0.5c-1.4-0.4-2.6-1.3-3.3-2.5c-0.7-1.2-0.9-2.7-0.5-4.1
			c0.4-1.4,1.3-2.6,2.6-3.3l4.7-2.7l5.4,9.4L151,333.6z M222.6,348.9c0.7,1.2,0.9,2.7,0.5,4.1c-0.4,1.4-1.3,2.6-2.6,3.3
			c-2.6,1.5-5.9,0.6-7.4-2l-10.9-18.9l9-5.2h0.4L222.6,348.9z"/>
	</g>
</g>
<g id="Layer_2">
	<path class="st18" d="M441.4,311c18.9-47.7,14.6-101.5-11.6-145.6l-264.4,36.6l253.4-52.8c-31.3-40.7-79.7-64.5-131-64.5
		c-91.3,0-165.2,74-165.2,165.2c0,7.5,0.5,15.1,1.5,22.5L441.4,311z"/>
	<path class="st18" d="M133.7,309.4c23.9,61.9,83.9,105.7,154.2,105.7c66,0,122.9-38.6,149.4-94.5L133.7,309.4z"/>
	<path class="st19" d="M203.5,162.2c-13.4-22.6-39.9-23.7-39.9-23.7s-25.8-3.3-42.4,31.2c-15.5,32.1-36.8,63.2-3.4,70.7l6-18.7
		l3.7,20.1c4.7,0.3,9.5,0.4,14.3,0.2c35.7-1.2,69.7,0.3,68.6-12.5C208.9,212.5,216.4,184,203.5,162.2z"/>
	<path class="st19" d="M115.8,360.5c-0.5,2.5-0.9,5-1.7,7.4c-0.8,2.4-2.1,4.5-2.9,6.9c-2.4,7.6,0.9,16.1,6.4,21.9
		c4.7,5.1,10.8,8.7,17.4,10.4c4.9,1.2,10,1.4,15,1.6c13.9,0.5,28.2,0.9,41.4-3.6c4.2-1.4,8.2-3.3,12-5.5c1.2-0.6,2.3-1.4,3.1-2.5
		c1-1.4,1.1-3.3,1.1-5c0-5.9-1.2-11.8-0.9-17.7c0.2-3.3,0.8-6.5,0.5-9.8c-0.7-7.4-6.5-14-13.8-15.6c-3.7-0.8-7.6-0.4-11.4,0
		c-9.9,1-19.8,1.4-29.8,1.3c-10.2-0.1-20.3-1.6-30.4-1.8c-3,0-2.9,0.9-3.9,3.8C117.1,355.1,116.4,357.8,115.8,360.5z"/>
	<path class="st20" d="M144.7,214.7c-0.5,2.6-1,5.2-2.6,7.3c-1.8,2.4-4.6,3.8-6.6,6.1c-2.9,3.5-3,8.4-3,12.9c0,4.2,0.1,8.6,2.4,12
		c1.5,2.2,3.8,3.8,6,5.3c8.7,5.9,18.1,11.8,28.5,12c4.3,0.1,9-1,11.8-4.3c1.2-1.5,2.2-3.3,2.9-5.1c2.7-6.6,4.3-13.6,4.8-20.7
		c0.2-3.3,0.2-6.8-0.9-9.9c-1.3-3.5-3.8-6.5-5.5-9.8c-2-4-2.7-8.5-2.1-12.9c0.1-0.3,0.1-0.6-0.1-0.9c-0.3-0.3-0.7-0.5-1.1-0.5
		l-20.8-1.5c-1.9-0.1-3.9-0.3-5.8-0.7c-1.1-0.2-4.1-1.8-5.1-1.4C145.6,203.3,145.1,212.5,144.7,214.7z"/>
	<path class="st21" d="M144.7,215.3c-0.5,2.6-1,5.2-2.6,7.3c-1.8,2.4-4.6,3.8-6.6,6.1c-2.9,3.5-3,8.4-3,12.9c0,4.2,0.1,8.6,2.4,12
		c1.5,2.2,3.8,3.8,6,5.3c8.7,5.9,18.1,11.8,28.5,12c4.3,0.1,9-1,11.8-4.3c1.2-1.5,2.2-3.3,2.9-5.1c2.7-6.6,4.3-13.6,4.8-20.7
		c0.2-3.3,0.2-6.8-0.9-9.9c-1.3-3.5-3.8-6.5-5.5-9.8c-2-4-2.7-8.5-2.1-12.9c0.1-0.3,0.1-0.6-0.1-0.9c-0.3-0.3-0.7-0.5-1.1-0.5
		l-20.8-1.5c-1.9-0.1-3.9-0.3-5.8-0.7c-1.1-0.2-4.1-1.8-5.1-1.4C145.6,204,145.1,213.2,144.7,215.3z"/>
	<circle class="st20" cx="164.5" cy="187" r="30.5"/>
	<path class="st22" d="M148.9,255.2c1.6,1.7,3.3,3.3,5.3,4.3c2.1,1,4.4,1.2,6.7,1.3c5.5,0.2,11.4-0.9,15.3-4.8
		c4.9-5.1,4.8-13.3,8.6-19.2c0.3-0.5,0.7-1,1.2-1.4c0.6-0.4,1.4-0.5,2.1-0.5c4.9,0,9.1,3.1,12.9,6.1c1.7,1.3,3.5,2.7,4.6,4.6
		c0.8,1.5,1.3,3.1,1.5,4.7c1.9,9.3,2.5,18.8,3.1,28.2c0.3,5.2,0.7,10.4,0.7,15.7c-0.1,17.2-4.1,34.2-8.1,51
		c-0.5,2.2-1.2,4.6-3.2,5.6c-0.9,0.4-1.8,0.6-2.8,0.7c-11.4,1.3-22.9,2.7-34.3,2.9c-4.5,0.1-9,0-13.4-0.3c-0.8,0-1.5-0.1-2.3-0.4
		c-1-0.5-1.8-1.2-2.5-2.1c-6.2-7.8-6.6-18.7-6.5-28.7c0.1-24.4,1-48.9,2.6-73.3c0.1-2,0.2-4.5-1.3-6
		C141.9,247.8,145.5,251.6,148.9,255.2z"/>
	<path class="st23" d="M142.5,220c-1,1.9-8.6,6.5-10.1,8c-8.2,8.6-23.1,8.3-30.6,17.5c-2.6,3.2-4,7.3-5,11.4
		c-1.4,5.7-2.2,12,0.2,17.4c2.3,5.2,7.1,8.8,10.4,13.5c3.6,5.1,5.2,11.3,6.8,17.4c1.1,4.5,2.3,9,1.9,13.6c-0.5,5.2-3,10-4.5,15
		c-1.5,5-1.7,11,1.7,15c2.5,2.9,6.5,4.1,10.3,4.7c4.8,0.8,9.8,1.1,14.7,1.3c4.3,0.2,9.1,0.2,12.5-2.6c2.6-2.2,3.8-5.8,3.9-9.2
		c0.1-3.4-0.6-6.8-1-10.2c-0.5-3.5-0.6-7.1-0.8-10.6c-0.7-15.9-0.8-31.9-0.3-47.8c0.1-3.3,0.2-6.7-0.5-9.9c-0.9-4.3-3.2-8.1-5.2-12
		c-3.8-7.8-5.6-15.3-5-24C142.4,219.9,146.1,213.4,142.5,220z"/>
	<path class="st23" d="M185.2,220.7c1.6,1.6,6.9,2.1,8.9,3.2c1.8,1,3.9,1.5,5.8,2c7.3,2.1,14.2,5.3,20.5,9.4c1.3,0.8,2.5,1.8,3.4,3
		c1.1,1.6,1.5,3.5,1.9,5.4c1,4.8,2,9.7,1.7,14.7c-0.2,5.2-1.8,10.3-3.4,15.3l-5.8,18.7c-4.4,13.9-8.7,28-10,42.6
		c-0.7,8.1-0.4,16.2,0.9,24.2c0.1,0.8,0.2,1.7-0.3,2.3c-0.4,0.4-0.9,0.6-1.4,0.7c-2.8,0.4-5.5-1-8.1-2.3c-7.8-3.9-16.1-6.6-24.7-8.1
		c3.4-4.9,5.9-10.2,7.7-15.8c1-3.6,1.8-7.2,2.3-10.9l2.7-15.7c1-5.8,2-11.5,2.3-17.4c0.2-2.2,0.1-4.4-0.4-6.5
		c-0.5-2.1-1.6-4-2.5-5.9c-4.5-9.3-6.6-19.9-4.8-30.1c0.8-4.5,2.3-8.9,1.6-13.4c-0.6-4.3,0-7.7-1.1-11.9
		C178.1,206.4,182.3,217.7,185.2,220.7z"/>
	<path class="st23" d="M101.7,260.3c-2,4.2-5.5,7.8-6.6,12.4c-0.5,2.1-0.6,4.3-0.6,6.5c0,3.3,0,6.6,1,9.7c0.6,2,1.7,3.9,2.5,5.8
		c1.1,2.8,1.5,5.7,1.4,8.6c-0.2,4.1-1.6,8-1.7,12.1c-0.2,6.4,2.8,12.5,5.7,18.2c2.8-6.8,10.6-10.2,17.4-7.4c0.7,0.3,1.4,0.6,2,1
		c0.8-0.7,0.8-1.9,0.9-2.9c0.2-7.4,0.4-14.9,0.6-22.3c0.3-11.5,0.6-23.2-2-34.4c-1.2-5.1-3.1-10.1-6.5-14c-1.8-2.1-7.9-7.5-10.8-5.2
		c-1.3,1-1,3.9-1.2,5.3C103.4,256,102.7,258.3,101.7,260.3z"/>
	<path class="st23" d="M228.1,248.1c1,3,1,6.2,1,9.4c0,6.4,0,12.9-0.3,19.3c-0.1,3.3-0.3,6.6-1.3,9.8c-0.7,2.1-1.7,4-2.4,6.1
		c-2,6.2-0.9,12.9-0.8,19.4c0.1,2.1-0.1,4.2-0.5,6.3c-1.1,4-4,7.3-6,11c-1.9,3.5-3.1,7.4-5.4,10.6s-6.3,5.8-10.1,4.8
		c-2.9-0.8-5-3.3-6.4-6c-3.1-5.8-4.2-12.5-3-19c1.4-7.9,6.1-14.9,7.8-22.8c2.3-10.8-1.2-21.9-1.1-33c0-1.7,0.2-3.5,0.7-5.1
		c0.9-2.5,2.8-4.5,4.5-6.6c2.2-2.5,4.2-5.2,6.1-8c1.2-1.9,2.9-6.6,5.2-7C221.2,236.5,226.9,244.3,228.1,248.1z"/>
	<path class="st19" d="M76.1,355.7c-2.7-0.7-5.5-1-8.4-0.9c-11.5,0.6-20.3,10.5-19.7,22c0,0.9,0.2,1.7,0.3,2.6
		c0.6,3.2,1.9,6.2,3.3,9.1c2.2,4.5,4.9,9,9,11.9c2.4,1.7,5.2,2.7,7.9,3.8l21.6,8.1c3.2,1.2,6.4,2.4,9.6,3.5c16.1,5.6,33,8.9,50,9.9
		c5.2,0.3,10.5,0.4,15.5-0.8c1.2-0.3,2.5-0.7,3.2-1.7c0.4-0.7,0.7-1.5,0.7-2.3l1.3-9.3c0.2-1.3,0.4-2.7-0.1-3.9
		c-0.6-1.6-2.1-2.6-3.6-3.4c-14.2-8.2-30.8-12.7-42.8-23.9c-2.8-2.6-5.2-6.8-8.6-8.6c-3.9-2-8.5-3.2-12.5-5.1
		C94.2,362.6,85.6,357.9,76.1,355.7z"/>
	<path class="st21" d="M97.7,368.3c7.6,2.4,39.9,19,45.4,24.8c-0.7,0.3-25.9-13.8-26.6-14.1c-6.9-2.1-13.8-4.1-20.3-7.1
		c-1.3-0.6-8.5-3.5-8.2-5.1C88.4,364.9,96.3,367.8,97.7,368.3z"/>
	<path class="st20" d="M193,430.6c0.4,0,0.9-0.1,1.2-0.4c0.3-0.4,0.4-0.9,0.4-1.4c0-4.2,0-8.5,0-12.7c-3.6-1.7-7.7-2.3-11.7-2.8
		l-18.7-2.5c0.4,0.1-2.9,8.1-2.4,9.1c0.9,1.9,7.8,3.5,9.8,4.4C178.3,427.4,185.4,430.8,193,430.6z"/>
	<path class="st20" d="M134.4,416.1c-3.5,0.6-7.5,1.1-9.8,3.8c-2.9,3.5-1.7,8.7-0.3,13c0.2,0.9,0.6,1.7,1.2,2.4
		c0.9,0.9,2.4,1.1,3.7,1.2c3.2,0.2,6.6,0.4,9.5-1.2c1.3-0.7,2.4-1.8,3.7-2.7c2.1-1.4,4.4-2.4,6.8-3.1c4.4-1.4,9-2.3,13.6-2.8
		c1.8-0.2,3.6-0.3,5.3-0.9c1.7-0.6,3.3-1.9,3.8-3.7c0.7-2.3-0.7-4.7-2-6.7c-1.6-2.5-3.3-5.2-5.7-7c-3.5-2.7-5.2-0.6-8.7,1.1
		C148.8,412.6,141.7,414.9,134.4,416.1z"/>
	<path class="st19" d="M125.2,419.3l-22.4-6.6c-2.7-0.8-5.5-1.6-8.3-1.6s-5.8,0.9-7.7,3.1c-1.7,2-2.2,4.8-2.7,7.5l-0.9,5.7
		c-0.5,2.9-0.9,5.8-0.5,8.7c0.4,2.9,1.9,5.8,4.5,7.2c3.1,1.7,6.9,0.9,10.4,0.2c7-1.4,14.1-2.2,21.2-2.3c2.7,0,5.5,0,7.9-1.3
		c2.8-1.5,4.5-4.7,4.8-7.8C131.8,427,130.2,420.7,125.2,419.3z"/>
	<path class="st19" d="M201.8,413.5c2.9-0.5,5.5-2.2,8.3-3.1c3.9-1.4,8.2-1.4,12.3-1.4c1.5,0,3.1,0,4.4,0.9c1.8,1.2,2.3,3.7,2.6,5.8
		c0.6,4.4,1.3,8.7,1.9,13.1c0.4,2.5,0.7,5,0.2,7.4c-0.6,2.4-2.2,4.8-4.6,5.4c-2.9,0.8-5.8-1.1-8.6-2.3c-6.9-3.1-15-2.3-22.2-4.6
		c-1.3-0.4-2.8-1.1-3.3-2.4c-0.2-0.7-0.3-1.5-0.3-2.3c0.1-4.2-0.8-10,0.5-14C194.2,412.5,198.6,413.5,201.8,413.5z"/>
	<path class="st19" d="M249.3,350.4c4.5-1.1,9.1-1.4,13.7-0.9c3.7,0.4,7.4,1.4,10.1,4c3.3,3.1,4.3,7.9,4.4,12.3
		c0.1,8.9-2.8,17.6-8.4,24.6c-1.4,1.8-3,3.3-4.8,4.6c-2,1.2-4.1,2.2-6.2,3l-48.4,19.1c-12.7,5-25.5,10.1-38.8,13.4
		c-1.5,0.7-3.3,0.1-4-1.4c0,0,0,0,0-0.1c-4.2-6.1-7.8-12.6-10.6-19.4c-0.5-0.6-0.4-1.4,0.2-1.8c0.1-0.1,0.3-0.2,0.4-0.2l34.2-19.7
		c2.5-1.4,4.9-2.8,7-4.8c1.5-1.4,2.7-3.1,3.6-5c0.7-1.5,0.8-5,1.7-6.1c0.9-1.1,3.9-1.2,5.3-1.6c2-0.6,3.9-1.3,5.8-2.2
		c7.7-3.4,14.5-8.4,21.8-12.4C240.3,353.5,244.7,351.7,249.3,350.4z"/>
	<path class="st21" d="M229.8,365.1c-5.9,4.4-13.5,8.5-19.3,13c-2,1.5-35.2,20.2-35.6,22.7c5.4,0.9,40.1-23.3,45.1-25.7
		c5-2.4,9.4-5.8,13.7-9.2c1.1-0.9,5.8-3.5,2.6-4.4C234.5,360.9,231.2,364.2,229.8,365.1z"/>
	<path class="st24" d="M189.4,221.1h-51.7c-4.4,0-7.9,3.5-7.9,7.9v2.9h-0.6v6.5h0.6v4.5h-0.6v3.9h0.6v47.8c0,4.4,3.5,7.9,7.9,7.9
		h51.7c4.4,0,7.9-3.5,7.9-7.9V229C197.3,224.7,193.7,221.1,189.4,221.1z"/>
	<polygon class="st19" points="197.6,160 171.4,146.3 135.2,151.9 127.7,184.9 146.3,184.2 151.5,172.1 151.5,184 160.1,183.7 
		165.1,164.4 168.3,184.9 198.8,184.3 	"/>
	<path class="st20" d="M108.6,346.2c1.3,1.9,2.8,3.8,4.9,4.9c2.6,1.3,5.8,1.1,8.4-0.2c2.6-1.4,4.7-3.5,6.1-6.1
		c2.8-5,3.4-11,3.1-16.8s-1.6-11.4-2.1-17.2c-0.4-4.2-0.4-8.4-0.5-12.6c0-0.9,0-1.8,0.5-2.5c0.6-0.9,1.8-1.1,2.8-1.4
		c5.7-1.7,9.6-7.1,12.3-12.4c1.8-3.6,3.4-7.5,3.1-11.4c-0.4-4-3.2-8-7.2-8.4c-3.3-0.3-6.3,1.7-8.7,4c-6,5.8-9.8,13.5-10.9,21.8
		c-0.5,4.1-0.4,8.2-1.5,12.2c-2.4,8.4-9.7,13.6-13.4,21.1C101.4,329.3,103.7,338.8,108.6,346.2z"/>
	<path class="st20" d="M217,314c-1.7,3.9-4.9,7-8.9,8.6c-2.5,1-5.2,1.2-7.7,0.5c-2.6-0.7-4.7-2.6-5.7-5.1c-0.4-1.2-0.6-2.5-0.6-3.8
		c-0.4-5.7-0.2-11.5,1.8-16.8c0.8-2,1.9-4,2.5-6.1c0.7-2.4,0.8-4.9,0.9-7.4l0.7-15.5c0.1-1.1,0-2.3-0.2-3.4c-0.7-2.2-2.8-3.7-4.7-5
		c-4.6-3.2-9.2-7-11.5-12.2c-0.7-1.6-1.1-3.3-0.8-5c0.6-3.1,3.7-5.1,6.8-5.7c8.2-1.8,16.3,3.4,18.1,11.6c0,0.2,0.1,0.4,0.1,0.6
		c0.3,1.7,0.3,3.5,0.5,5.3c0.4,3.7,1.6,7.3,2.3,11c1.8,9.1,0.9,18.4,2.7,27.5C214.8,300.8,220.5,305.7,217,314z"/>
	<circle class="st22" cx="164.2" cy="249.4" r="6.5"/>
	<path class="st24" d="M437.8,256.4c-19.2,0-34.7,15.5-34.7,34.7c0,19.2,15.5,34.7,34.7,34.7c19.2,0,34.7-15.5,34.7-34.7v0
		C472.5,271.9,456.9,256.4,437.8,256.4z M454.9,282.3c0,0.4,0,0.8,0,1.1c0,11.7-8.9,25.2-25.2,25.2c-4.8,0-9.5-1.4-13.5-4
		c0.7,0.1,1.4,0.1,2.1,0.1c4,0,7.9-1.3,11-3.8c-3.8-0.1-7.1-2.5-8.3-6.2c0.5,0.1,1.1,0.2,1.7,0.2c0.8,0,1.6-0.1,2.3-0.3
		c-4.1-0.8-7.1-4.5-7.1-8.7v-0.1c1.2,0.7,2.6,1.1,4,1.1c-3.9-2.6-5.1-7.8-2.8-11.8c4.5,5.5,11.1,8.9,18.2,9.3
		c-0.2-0.7-0.2-1.3-0.2-2c0-4.9,4-8.9,8.8-8.9c2.5,0,4.8,1,6.5,2.8c2-0.4,3.9-1.1,5.6-2.1c-0.7,2.1-2,3.8-3.9,4.9
		c1.8-0.2,3.5-0.7,5.1-1.4C458.1,279.5,456.6,281,454.9,282.3z"/>
	<circle class="st24" cx="426.6" cy="159.8" r="6.2"/>
	<path class="st24" d="M434.3,144.4h-15.4c-4.3,0-7.7,3.5-7.7,7.7v15.4c0,4.3,3.5,7.7,7.7,7.7h15.4c4.3,0,7.7-3.5,7.7-7.7v-15.4
		C442,147.8,438.6,144.4,434.3,144.4z M426.6,169.1c-5.1,0-9.3-4.1-9.3-9.3c0-5.1,4.1-9.3,9.3-9.3s9.3,4.1,9.3,9.3
		C435.8,164.9,431.7,169.1,426.6,169.1z M436.6,152.1c-1.3,0-2.3-1-2.3-2.3c0-1.3,1-2.3,2.3-2.3c1.3,0,2.3,1,2.3,2.3
		C438.9,151.1,437.9,152.1,436.6,152.1C436.6,152.1,436.6,152.1,436.6,152.1L436.6,152.1z"/>
	<path class="st24" d="M426.2,123.5c-20.2,0-36.6,16.4-36.6,36.6s16.4,36.6,36.6,36.6c20.2,0,36.6-16.4,36.6-36.6v0
		C462.8,139.9,446.4,123.5,426.2,123.5z M445.1,167.5c0,6-4.8,10.8-10.8,10.8h-15.4c-6,0-10.8-4.8-10.8-10.8v-15.4
		c0-6,4.8-10.8,10.8-10.8h15.4c6,0,10.8,4.8,10.8,10.8V167.5z"/>
	<path class="st24" d="M277.7,57.5c-19.9,0-36,16.1-36,36s16.1,36,36,36c19.9,0,36-16.1,36-36S297.6,57.5,277.7,57.5L277.7,57.5z
		 M289.1,79.3h-4.6c-3.1,0-3.7,1.5-3.7,3.7v4.7h7.5l-1,7.3h-6.5v19.8h-8.4V95h-6v-7.3h6v-5.4c0-6.5,4.5-10,10.3-10
		c2.8,0,5.7,0.2,6.4,0.3V79.3z"/>
</g>
</svg>
