<?xml version="1.0" encoding="utf-8"?>
<!-- Generator: Adobe Illustrator 23.0.0, SVG Export Plug-In . SVG Version: 6.00 Build 0)  -->
<svg version="1.1" xmlns="http://www.w3.org/2000/svg" xmlns:xlink="http://www.w3.org/1999/xlink" x="0px" y="0px"
	 viewBox="0 0 512 512" style="enable-background:new 0 0 512 512;" xml:space="preserve">
<style type="text/css">
	.st0{fill:#FEAF88;}
	.st1{fill:#CE8E72;}
	.st2{fill:#666666;}
	.st3{fill:#DCE3DB;}
	.st4{fill:#FFFFFF;}
	.st5{fill:#B6B6B8;}
	.st6{fill:#C2C2C4;}
	.st7{fill:#ECF0F1;}
	.st8{fill:#919191;}
	.st9{fill:#828282;}
	.st10{fill:#21D0C3;}
	.st11{fill:#FAD24D;}
	.st12{fill:#FF5B62;}
	.st13{fill:#FF687D;}
	.st14{fill:#265D84;}
</style>
<g id="Layer_1">
	<circle class="st0" cx="256" cy="256" r="256"/>
	<path class="st1" d="M256,407.3c100.7,0,182.3,6.4,182.3,14.4S356.7,436,256,436c-100.7,0-182.3-6.4-182.3-14.4
		C73.7,413.7,155.3,407.3,256,407.3z"/>
	<path class="st2" d="M66,67.2h380c12.5,0,22.7,10.2,22.7,22.7V324H43.3V89.9C43.3,77.4,53.5,67.2,66,67.2L66,67.2L66,67.2z"/>
	<path class="st3" d="M58.7,308.6h394.6V89.9c0-4-3.3-7.3-7.3-7.3H66c-4,0-7.3,3.3-7.3,7.3L58.7,308.6L58.7,308.6z"/>
	<path class="st4" d="M468.7,324v24.8c0,12.5-11.3,22.7-25,22.7H68.3c-13.8,0-25-10.2-25-22.7V324H468.7z"/>
	<circle class="st5" cx="256" cy="346.8" r="7.8"/>
	<path class="st6" d="M305.1,407.3l36.1,11.6H170.8l29.1-11.6v-35.7h105.1V407.3z"/>
	<path class="st7" d="M200,407.3h105.1l36.1,11.6v5H256h-85.2v-5L200,407.3L200,407.3z"/>
	<path class="st8" d="M200,371.6h105.1v35.7L200,371.6z"/>
	<path class="st4" d="M149.6,108.3h212.9h31.7c3.8,0,7,3.1,7,7v41.5v151.7H110.9v0V156.9v-41.5c0-3.8,3.1-7,7-7L149.6,108.3
		C149.6,108.3,149.6,108.3,149.6,108.3z"/>
	<path class="st9" d="M117.9,108.3h276.3c3.8,0,7,3.1,7,7v14H110.9v-14C110.9,111.5,114,108.3,117.9,108.3z"/>
	<path class="st4" d="M240.1,115.6h140.2c1,0,1.9,0.8,1.9,1.9v3.5c0,1-0.8,1.9-1.9,1.9H240.1c-1,0-1.9-0.8-1.9-1.9v-3.5
		C238.2,116.4,239.1,115.6,240.1,115.6z"/>
	<path class="st10" d="M124.8,114.3c2.2,0,4,1.8,4,4s-1.8,4-4,4c-2.2,0-4-1.8-4-4C120.8,116.1,122.6,114.3,124.8,114.3z"/>
	<path class="st11" d="M140.7,114.3c2.2,0,4,1.8,4,4s-1.8,4-4,4s-4-1.8-4-4C136.7,116.1,138.5,114.3,140.7,114.3z"/>
	<path class="st12" d="M156.6,114.3c2.2,0,4,1.8,4,4s-1.8,4-4,4c-2.2,0-4-1.8-4-4C152.5,116.1,154.3,114.3,156.6,114.3z"/>
	<path class="st13" d="M215.3,277.2l59.1-117.3l20.6,10.4l-59.1,117.3L215.3,277.2z"/>
	<g>
		<path class="st14" d="M333.6,272l-16.3-16.2l30.1-30.3l-34.2-34l16.2-16.3l50.6,50.3L333.6,272z"/>
		<path class="st14" d="M177,272.5l-46.6-46.3l50.3-50.6l16.3,16.2l-34,34.2l30.3,30.1L177,272.5z"/>
	</g>
</g>
<g id="Layer_2">
</g>
</svg>
